<?xml version="1.0" standalone="no"?>
<svg xmlns="http://www.w3.org/2000/svg" viewBox="0 0 70 57" width="70" height="57"><g fill="#ead017" color="#ead017" transform="translate(12.573 0) scale(0.9166667) "><svg width="48.0" height="29.0" x="0.0" y="0.0" viewBox="0 0 48 29"><path fill="currentColor" fill-rule="evenodd" d="M28.917 24.896a8.772 8.772 0 0 0 1.964-2.044c1.03-1.514 1.3-3.542 1.136-5.33-.105-1.14-.309-2.423-.802-3.516a32.488 32.488 0 0 1 4.157 2.085c1.157.692 2.211 1.411 3.158 2.35.53.525.889.937 1.13 1.425-2.831 2.816-6.827 4.294-10.743 5.03M7.383 20.762c1.1-1.85 2.52-3.46 4.335-4.688.68-.46 1.39-.876 2.122-1.255a11.12 11.12 0 0 0-.543 3.197c-.046 1.752.339 3.63 1.32 5.105.254.38.546.729.86 1.054a41.305 41.305 0 0 1-2.6-.817c-1.905-.676-3.779-1.513-5.494-2.596m9.467-3.202c.004-.053.035-.292.045-.385.096-.553.229-1.089.42-1.618l.043-.124a1.51 1.51 0 0 0 .062-.106c.11-.197.21-.395.334-.585.013-.02.158-.2.19-.246a5.58 5.58 0 0 1 .379-.396c.008-.008.192-.158.24-.202a6.35 6.35 0 0 1 .52-.34c.307-.182.787-.424 1.013-.518.821-.28 1.699-.508 2.45-.544.363-.02.728-.012 1.09.02.041.01.35.05.353.052a7.4 7.4 0 0 1 .687.175c.547.169.756.264 1.39.677a8 8 0 0 1 .297.207c.04.035.218.174.236.19a9.162 9.162 0 0 1 1.074 1.103c.01.012.072.1.12.166l.16.29a.47.47 0 0 1 .022.045l-.016-.049c.007.024.016.047.024.07.021.054.041.111.05.138.019.05.039.101.055.154.108.32.195.647.265.976.034.154.059.31.09.465l.021.094c.001.027.003.046.007.086.025.282.05.562.056.846.022.914.007 1.137-.229 1.916a3.46 3.46 0 0 1-.756 1.273c-.565.573-.987.885-1.712 1.279-1.198.652-2.506.912-3.957.8-1.109-.083-2.727-.663-3.597-1.454a6.098 6.098 0 0 1-.393-.395 2.97 2.97 0 0 0-.103-.108l-.067-.098a5.457 5.457 0 0 1-.465-.82c-.016-.051-.11-.293-.113-.305-.053-.16-.1-.322-.14-.487-.04-.162-.069-.327-.105-.49l-.022-.093c0-.02 0-.047-.004-.09a11.96 11.96 0 0 1-.037-1.113c.004-.152.013-.305.023-.456m30.457-4.996c-.496-.77-1.588-1.175-2.414-.633l-4.815 3.155a23.446 23.446 0 0 0-1.57-1.175 28.362 28.362 0 0 0-3.175-1.869c.425-.361.836-.738 1.222-1.142.855-.898 1.613-1.89 2.333-2.9.252-.352.288-.957.178-1.36-.113-.408-.429-.852-.81-1.054-.41-.216-.907-.324-1.36-.178-.46.15-.775.418-1.056.812a34.4 34.4 0 0 1-.56.758c-.829 1.05-1.746 2.022-2.795 2.856-.151.113-.302.226-.458.334a2.53 2.53 0 0 0-.31.253c-.314-.123-.626-.254-.942-.37-1.939-.714-3.908-1.159-5.915-1.292l.036-6.287c.005-.923-.816-1.807-1.764-1.765-.962.043-1.76.775-1.765 1.765l-.037 6.383c-.074.009-.149.012-.223.022-1.975.259-3.942.76-5.833 1.462a2.476 2.476 0 0 0-.215-.17c-.246-.172-.487-.352-.727-.532-.713-.57-1.366-1.201-1.939-1.912a21.08 21.08 0 0 1-1.012-1.505 1.84 1.84 0 0 0-1.055-.812c-.422-.116-.984-.064-1.36.178C8.179 6.094 7.816 7.16 8.335 8c.616 1 1.288 1.976 2.086 2.84.383.414.8.792 1.235 1.152-.268.148-.537.293-.798.448a18.833 18.833 0 0 0-3.661 2.86c-1.545-.894-3.007-1.92-4.558-2.803-.803-.457-1.967-.215-2.414.633-.444.838-.225 1.927.632 2.415 1.382.787 2.697 1.685 4.06 2.505-.507.751-.96 1.542-1.358 2.373-.269.458-.298.92-.163 1.341.101.432.362.82.797 1.073 2.032 1.548 4.382 2.64 6.756 3.557a39.341 39.341 0 0 0 7.881 2.148c5.498.888 11.292.25 16.464-1.846 2.86-1.16 5.598-2.766 7.617-5.144.014-.017.024-.035.037-.052.207-.232.343-.516.408-.825l.018-.076a2.615 2.615 0 0 0 .03-.378c0-.04-.005-.08-.008-.12-.005-.059-.01-.116-.02-.174-.005-.03-.005-.061-.011-.092a6.296 6.296 0 0 0-.871-2.117l4.18-2.74c.772-.505 1.169-1.585.634-2.414"></path></svg></g><path fill="#000000" fill-rule="nonzero" d="M8.38 4.34L11.66 4.34L6.46 19.58Q6.10 20.62 5.52 21.19L5.52 21.19Q4.56 22.15 2.83 22.15L2.83 22.15L1.37 22.15L1.37 19.34L2.33 19.34Q3 19.34 3.32 19.12Q3.65 18.89 3.89 18.22L3.89 18.22L4.13 17.54L0 4.34L3.29 4.34L5.74 13.87L8.38 4.34ZM22.92 14.26L22.92 14.26L22.92 14.62Q22.78 16.42 21.40 17.33Q20.02 18.24 17.95 18.24L17.95 18.24Q14.90 18.24 13.68 17.14L13.68 17.14Q12.55 16.13 12.55 14.16L12.55 14.16L12.55 13.87L15.38 13.87Q15.38 14.98 15.96 15.38Q16.54 15.79 17.95 15.79L17.95 15.79Q19.87 15.79 19.87 14.40L19.87 14.40Q19.87 13.25 19.20 12.86L19.20 12.86Q18.89 12.67 18.41 12.58L18.41 12.58L15.98 12.17Q12.82 11.66 12.82 8.21L12.82 8.21Q12.82 6.29 14.22 5.22Q15.62 4.15 17.78 4.15L17.78 4.15Q22.70 4.15 22.70 8.40L22.70 8.40L22.70 8.71L19.99 8.71Q19.94 7.58 19.39 7.18Q18.84 6.77 17.84 6.77Q16.85 6.77 16.34 7.16Q15.84 7.56 15.84 8.04L15.84 8.04Q15.84 9.41 16.94 9.60L16.94 9.60L19.85 10.13Q22.92 10.70 22.92 14.26ZM28.54 0L28.54 18.05L25.42 18.07L25.42 0L28.54 0ZM42.17 11.93L42.17 11.93L34.18 11.93Q34.18 13.80 34.76 14.66Q35.35 15.53 37.13 15.53L37.13 15.53Q38.28 15.53 38.83 14.80Q39.38 14.06 39.38 13.39L39.38 13.39L42.19 13.39Q42.19 15.96 40.81 17.16Q39.43 18.36 37.16 18.36Q34.90 18.36 33.65 17.71L33.65 17.71Q31.08 16.39 31.08 10.70L31.08 10.70Q31.08 7.32 32.54 5.75Q34.01 4.18 37.01 4.18L37.01 4.18Q42.22 4.18 42.22 9.96L42.22 9.96Q42.22 10.58 42.17 11.93ZM34.25 9.79L34.25 9.79L39.38 9.79Q39.38 8.21 38.78 7.49Q38.18 6.77 36.95 6.77Q35.71 6.77 34.98 7.50Q34.25 8.23 34.25 9.79ZM55.32 11.93L55.32 11.93L47.33 11.93Q47.33 13.80 47.92 14.66Q48.50 15.53 50.28 15.53L50.28 15.53Q51.43 15.53 51.98 14.80Q52.54 14.06 52.54 13.39L52.54 13.39L55.34 13.39Q55.34 15.96 53.96 17.16Q52.58 18.36 50.32 18.36Q48.05 18.36 46.80 17.71L46.80 17.71Q44.23 16.39 44.23 10.70L44.23 10.70Q44.23 7.32 45.70 5.75Q47.16 4.18 50.16 4.18L50.16 4.18Q55.37 4.18 55.37 9.96L55.37 9.96Q55.37 10.58 55.32 11.93ZM47.40 9.79L47.40 9.79L52.54 9.79Q52.54 8.21 51.94 7.49Q51.34 6.77 50.10 6.77Q48.86 6.77 48.13 7.50Q47.40 8.23 47.40 9.79ZM69.14 10.82L69.14 10.82Q69.14 16.18 66.38 17.66L66.38 17.66Q65.26 18.26 63.62 18.26L63.62 18.26L61.32 16.78L61.32 22.13L58.20 22.13L58.20 4.44L64.34 4.44Q67.13 4.44 68.14 6.01Q69.14 7.58 69.14 10.82ZM66.02 11.30L66.02 11.30Q66.02 7.25 63.43 7.25L63.43 7.25L61.32 7.25L61.32 13.61L63.43 14.98Q64.82 14.98 65.42 14.10Q66.02 13.22 66.02 11.30Z" transform="translate(0, 34.584)"></path></svg>